<svg xmlns="http://www.w3.org/2000/svg" viewBox="0 0 32 32">
  <defs>
    <linearGradient id="g" x1="0" y1="0" x2="0" y2="1">
      <stop offset="0" stop-color="#6366f1" />
      <stop offset="1" stop-color="#4338ca" />
    </linearGradient>
  </defs>
  <path fill="url(#g)" d="M16 2 4 7v8c0 7.2 5.1 13.4 12 15 6.9-1.6 12-7.8 12-15V7L16 2z" />
  <path fill="#fff" d="M16 9a3.2 3.2 0 0 0-3.2 3.2c0 1.2.7 2.3 1.7 2.8V19a1.5 1.5 0 0 0 3 0v-4c1-.5 1.7-1.6 1.7-2.8A3.2 3.2 0 0 0 16 9z" opacity=".95"/>
</svg>
